InvertedPendulumModel_states
version=1
nRows=44
nColumns=3
inDegrees=yes

# SIMM Motion File Header:
name InvertedPendulumModel_states
datacolumns 3
datarows 44
otherdata 1
range 0.000000 5.000000
endheader
time	/jointset/BeamToBase/ankle_angle/value	/jointset/BeamToBase/ankle_angle/speed
      0.00000000	    -25.71400000	      0.00000000
      0.01000000	    -25.68905482	      4.96852548
      0.06000000	    -24.85528553	     27.79420206
      0.14941794	    -20.88458344	     58.77013444
      0.23883588	    -14.76615584	     75.71901003
      0.31507789	     -8.79493056	     79.35346614
      0.39131989	     -2.88553092	     74.37699569
      0.46756190	      2.37658354	     62.73333792
      0.54380391	      6.56864470	     46.69849343
      0.62004591	      9.44532556	     28.60867984
      0.69628792	     10.93411620	     10.62555028
      0.77252992	     11.11453772	     -5.45089779
      0.87482406	      9.66189146	    -21.81122752
      0.97711819	      6.90558696	    -30.81192863
      1.06565538	      4.05820447	    -32.63961048
      1.15419257	      1.26551247	    -29.75817417
      1.24272976	     -1.10983110	    -23.45044541
      1.33126695	     -2.82997466	    -15.21036898
      1.41980414	     -3.78973873	     -6.50479330
      1.50834133	     -4.00540447	      1.41593707
      1.62479861	     -3.35448631	      9.16375950
      1.74125589	     -2.02450984	     13.00607479
      1.85771317	     -0.47453990	     13.03609782
      1.96111876	      0.76312557	     10.59417376
      2.06452435	      1.66967811	      6.79654718
      2.16792994	      2.15572887	      2.61540326
      2.27133552	      2.22631397	     -1.12039260
      2.41159916	      1.80521146	     -4.50781637
      2.55186280	      1.07381848	     -5.53701050
      2.67546228	      0.42447850	     -4.75278211
      2.79906176	     -0.06077442	     -2.99420610
      2.92266124	     -0.30385943	     -0.94385079
      3.04626072	     -0.30640019	      0.81752634
      3.21705451	     -0.03249310	      2.15112600
      3.36953813	      0.30883446	      2.15951571
      3.52202174	      0.58613683	      1.38938167
      3.67450536	      0.71922966	      0.35406092
      3.82698897	      0.70411796	     -0.49381416
      4.03194777	      0.54275581	     -0.93977400
      4.20768622	      0.39028487	     -0.72503607
      4.38342466	      0.30318307	     -0.25041682
      4.55916311	      0.29917355	      0.17737202
      4.78644296	      0.37147817	      0.38805933
      5.00000000	      0.44401177	      0.25332427
